<svg xmlns="http://www.w3.org/2000/svg" width="121.25" height="97" viewBox="0 0 121.25 97"><path d="M110.807,41.969l-2.839-7.1-5.034-12.587A28.154,28.154,0,0,0,76.665,4.5H44.585A28.157,28.157,0,0,0,18.316,22.283L13.282,34.871l-2.839,7.1A16.132,16.132,0,0,0,0,57.042V69.167A16.035,16.035,0,0,0,4.042,79.758V93.417a8.084,8.084,0,0,0,8.083,8.083h8.083a8.084,8.084,0,0,0,8.083-8.083V85.333H92.958v8.083a8.084,8.084,0,0,0,8.083,8.083h8.083a8.084,8.084,0,0,0,8.083-8.083V79.758a16.025,16.025,0,0,0,4.042-10.592V57.042A16.132,16.132,0,0,0,110.807,41.969ZM33.326,28.288a12.126,12.126,0,0,1,11.259-7.621H76.665a12.126,12.126,0,0,1,11.259,7.621l5.034,12.587H28.292l5.034-12.587ZM20.208,69.116c-4.85,0-8.083-3.223-8.083-8.058S15.358,53,20.208,53s12.125,7.252,12.125,12.087S25.058,69.116,20.208,69.116Zm80.833,0c-4.85,0-12.125.806-12.125-4.029S96.192,53,101.042,53s8.083,3.223,8.083,8.058-3.233,8.058-8.083,8.058Z" transform="translate(0 -4.5)"/></svg>